<svg width="80" height="70" viewBox="0 0 82 74" fill="none" xmlns="http://www.w3.org/2000/svg">
<path fill-rule="evenodd" clip-rule="evenodd" d="M21 73.3288L1 37.1644L10.9448 37.0869L26.0276 63.0268L40.7189 63.9208L21 73.3288Z" fill="#2C2C2C"/>
<path d="M61 73.3288L81 37.1644L70.8847 37.9809L55.8018 63.9208H40.7189L21 73.3288H61Z" fill="#575757"/>
<path d="M21 1L1 37.1644L10.9448 37.0869L26.0276 11.147H41.1105L61 1H21Z" fill="#575757"/>
<path fill-rule="evenodd" clip-rule="evenodd" d="M70.8847 37.9809L48.9817 45.0547L33.0437 30.1189L41.1105 11.147H56.1934L70.8847 37.9809ZM53.4849 18.1048H45.2424L43.0994 29.2229L50.5758 37.0869L61 34.11L53.4849 18.1048Z" fill="#4BE0D8"/>
<path d="M53.4849 18.1048H45.2424L43.0994 29.2229L50.5758 37.0869L61 34.11L53.4849 18.1048Z" fill="#6DF9F2"/>
<path fill-rule="evenodd" clip-rule="evenodd" d="M26.0276 63.0268L10.9448 37.0869L33.0437 30.1189L48.9817 45.0547L40.7189 63.9208L26.0276 63.0268ZM32.1515 37.9809L41.1105 45.0547L38.2121 55.6131H28.6364L20.1515 41.5628L32.1515 37.9809Z" fill="#005DBD"/>
<path d="M41.1105 45.0547L32.1515 37.9809L20.1515 41.5628L28.6364 55.6131H38.2121L41.1105 45.0547Z" fill="#1D7EE2"/>
<path fill-rule="evenodd" clip-rule="evenodd" d="M10.9448 37.0869L26.0276 11.147H41.1105L33.0437 30.1189L10.9448 37.0869ZM34.4545 16.0278H27.7879L18.697 30.1189L29.4848 26.9015L34.4545 16.0278Z" fill="#2C2C2C"/>
<path d="M81 37.1644L61 1L41.1105 11.147H56.1934L70.8847 37.9809L81 37.1644Z" fill="#2C2C2C"/>
<path d="M34.4545 16.0278H27.7879L18.697 30.1189L29.4848 26.9015L34.4545 16.0278Z" fill="#252525"/>
<path fill-rule="evenodd" clip-rule="evenodd" d="M70.8847 37.9809L55.8018 63.9208H40.7189L48.9817 45.0547L70.8847 37.9809ZM52.4286 47.0274L63.5455 44.0063L54.8776 59.3562H47.5306L52.4286 47.0274Z" fill="#2C2C2C"/>
<path d="M63.5455 44.0063L52.4286 47.0274L47.5306 59.3562H54.8776L63.5455 44.0063Z" fill="#252525"/>
<path d="M81 37.1644L61 73.3288H21M81 37.1644L61 1M81 37.1644L70.8847 37.9809M21 73.3288L1 37.1644M21 73.3288L40.7189 63.9208M1 37.1644L21 1H61M1 37.1644L10.9448 37.0869M61 1L41.1105 11.147M70.8847 37.9809L55.8018 63.9208M70.8847 37.9809L48.9817 45.0547M70.8847 37.9809L56.1934 11.147M70.8847 37.9809L61 34.11M70.8847 37.9809L63.5455 44.0063M55.8018 63.9208H40.7189M55.8018 63.9208L54.8776 59.3562M26.0276 63.0268L10.9448 37.0869M26.0276 63.0268L40.7189 63.9208M26.0276 63.0268L28.6364 55.6131M10.9448 37.0869L26.0276 11.147M10.9448 37.0869L33.0437 30.1189M10.9448 37.0869L20.1515 41.5628M10.9448 37.0869L18.697 30.1189M26.0276 11.147H41.1105M26.0276 11.147L27.7879 16.0278M56.1934 11.147H41.1105M56.1934 11.147L53.4849 18.1048M41.1105 11.147L33.0437 30.1189M41.1105 11.147L45.2424 18.1048M41.1105 11.147L34.4545 16.0278M48.9817 45.0547L33.0437 30.1189M48.9817 45.0547L40.7189 63.9208M48.9817 45.0547L50.5758 37.0869M48.9817 45.0547H41.1105M48.9817 45.0547L52.4286 47.0274M40.7189 63.9208L38.2121 55.6131M40.7189 63.9208L47.5306 59.3562M33.0437 30.1189L43.0994 29.2229M33.0437 30.1189L32.1515 37.9809M33.0437 30.1189L29.4848 26.9015M45.2424 18.1048H53.4849M45.2424 18.1048L43.0994 29.2229M53.4849 18.1048L61 34.11M61 34.11L50.5758 37.0869M50.5758 37.0869L43.0994 29.2229M32.1515 37.9809L41.1105 45.0547M32.1515 37.9809L20.1515 41.5628M41.1105 45.0547L38.2121 55.6131M38.2121 55.6131H28.6364M28.6364 55.6131L20.1515 41.5628M27.7879 16.0278H34.4545M27.7879 16.0278L18.697 30.1189M34.4545 16.0278L29.4848 26.9015M29.4848 26.9015L18.697 30.1189M52.4286 47.0274L63.5455 44.0063M52.4286 47.0274L47.5306 59.3562M63.5455 44.0063L54.8776 59.3562M54.8776 59.3562H47.5306" stroke="black"/>
</svg>
