<svg width="37" height="29" viewBox="0 0 37 29" fill="none" xmlns="http://www.w3.org/2000/svg">
<path d="M31.0943 2.47968C28.7668 1.39468 26.2468 0.60718 23.6218 0.15218C23.5988 0.151444 23.5759 0.155763 23.5547 0.164834C23.5335 0.173905 23.5146 0.187507 23.4993 0.20468C23.1843 0.78218 22.8168 1.53468 22.5718 2.11218C19.7875 1.69218 16.956 1.69218 14.1718 2.11218C13.9268 1.51718 13.5593 0.78218 13.2268 0.20468C13.2093 0.16968 13.1568 0.15218 13.1043 0.15218C10.4793 0.60718 7.97679 1.39468 5.63179 2.47968C5.61429 2.47968 5.59679 2.49718 5.57929 2.51468C0.819287 9.63718 -0.493213 16.5672 0.154287 23.4272C0.154287 23.4622 0.171787 23.4972 0.206787 23.5147C3.35679 25.8247 6.38429 27.2247 9.37679 28.1522C9.42929 28.1697 9.48179 28.1522 9.49929 28.1172C10.1993 27.1547 10.8293 26.1397 11.3718 25.0722C11.4068 25.0022 11.3718 24.9322 11.3018 24.9147C10.3043 24.5297 9.35929 24.0747 8.43179 23.5497C8.36179 23.5147 8.36179 23.4097 8.41429 23.3572C8.60679 23.2172 8.79929 23.0597 8.99179 22.9197C9.02679 22.8847 9.07929 22.8847 9.11429 22.9022C15.1343 25.6497 21.6268 25.6497 27.5768 22.9022C27.6118 22.8847 27.6643 22.8847 27.6993 22.9197C27.8918 23.0772 28.0843 23.2172 28.2768 23.3747C28.3468 23.4272 28.3468 23.5322 28.2593 23.5672C27.3493 24.1097 26.3868 24.5472 25.3893 24.9322C25.3193 24.9497 25.3018 25.0372 25.3193 25.0897C25.8793 26.1572 26.5093 27.1722 27.1918 28.1347C27.2443 28.1522 27.2968 28.1697 27.3493 28.1522C30.3593 27.2247 33.3868 25.8247 36.5368 23.5147C36.5718 23.4972 36.5893 23.4622 36.5893 23.4272C37.3593 15.4997 35.3118 8.62218 31.1643 2.51468C31.1468 2.49718 31.1293 2.47968 31.0943 2.47968ZM12.2818 19.2447C10.4793 19.2447 8.97429 17.5822 8.97429 15.5347C8.97429 13.4872 10.4443 11.8247 12.2818 11.8247C14.1368 11.8247 15.6068 13.5047 15.5893 15.5347C15.5893 17.5822 14.1193 19.2447 12.2818 19.2447ZM24.4793 19.2447C22.6768 19.2447 21.1718 17.5822 21.1718 15.5347C21.1718 13.4872 22.6418 11.8247 24.4793 11.8247C26.3343 11.8247 27.8043 13.5047 27.7868 15.5347C27.7868 17.5822 26.3343 19.2447 24.4793 19.2447Z" fill="#24292f"/>
</svg>
