<svg width="35" height="35" viewBox="0 0 35 35" fill="none" xmlns="http://www.w3.org/2000/svg">
<path d="M17.2083 0C14.9485 0 12.7108 0.452651 10.623 1.33211C8.53518 2.21157 6.63815 3.50061 5.0402 5.12563C1.81302 8.40752 0 12.8587 0 17.5C0 25.235 4.93879 31.7975 11.7705 34.125C12.6309 34.265 12.9063 33.7225 12.9063 33.25V30.2925C8.13954 31.3425 7.12425 27.9475 7.12425 27.9475C6.33267 25.9175 5.21413 25.375 5.21413 25.375C3.64817 24.29 5.33458 24.325 5.33458 24.325C7.05542 24.4475 7.96746 26.1275 7.96746 26.1275C9.46458 28.7875 11.9942 28 12.9751 27.58C13.13 26.4425 13.5774 25.6725 14.0592 25.235C10.239 24.7975 6.22942 23.2925 6.22942 16.625C6.22942 14.6825 6.88333 13.125 8.00188 11.8825C7.82979 11.445 7.2275 9.625 8.17396 7.2625C8.17396 7.2625 9.61946 6.79 12.9063 9.0475C14.2657 8.6625 15.7456 8.47 17.2083 8.47C18.671 8.47 20.151 8.6625 21.5104 9.0475C24.7972 6.79 26.2427 7.2625 26.2427 7.2625C27.1892 9.625 26.5869 11.445 26.4148 11.8825C27.5333 13.125 28.1873 14.6825 28.1873 16.625C28.1873 23.31 24.1605 24.78 20.323 25.2175C20.9425 25.76 21.5104 26.8275 21.5104 28.455V33.25C21.5104 33.7225 21.7858 34.2825 22.6634 34.125C29.4951 31.78 34.4167 25.235 34.4167 17.5C34.4167 15.2019 33.9716 12.9262 33.1068 10.803C32.242 8.67984 30.9744 6.75066 29.3765 5.12563C27.7785 3.50061 25.8815 2.21157 23.7937 1.33211C21.7059 0.452651 19.4682 0 17.2083 0Z" fill="white"/>
</svg>
