<svg width="60" height="85" viewBox="0 0 60 85" fill="none" xmlns="http://www.w3.org/2000/svg">
<g clip-path="url(#clip0_774_525)">
<path d="M59.8956 16.5859L54.4485 77.6078L29.9634 84.3958L5.54573 77.6172L0.104248 16.5859H59.8956Z" fill="#E44D26"/>
<path d="M30 79.2069L49.7852 73.7218L54.4399 21.5757H30V79.2069Z" fill="#F16529"/>
<path d="M19.411 36.5468H30V29.0615H11.2306L11.4097 31.0696L13.2495 51.697H30V44.2118H20.0951L19.411 36.5468ZM21.098 55.4397H13.584L14.6325 67.1927L29.9656 71.4489L30 71.4396V63.6518L29.9672 63.6604L21.631 61.4095L21.098 55.4397Z" fill="#EBEBEB"/>
<path d="M5.66724 0H9.47114V3.7582H12.9509V0H16.755V11.3808H12.9511V7.56984H9.47138V11.3808H5.66747L5.66724 0ZM21.7571 3.77414H18.4088V0H28.9121V3.77414H25.5617V11.3808H21.7578V3.77414H21.7571ZM30.579 0H34.5453L36.9851 3.99891L39.4226 0H43.3906V11.3808H39.6022V5.73984L36.9851 9.78633H36.9195L34.3008 5.73984V11.3808H30.579V0ZM45.2836 0H49.0887V7.61906H54.4381V11.3808H45.2834L45.2836 0Z" fill="black"/>
<path d="M29.9742 51.697H39.1915L38.3224 61.4048L29.974 63.6581V71.4454L45.3192 67.1927L45.4317 65.928L47.191 46.2218L47.3735 44.2118H29.9742V51.697ZM29.9742 36.5285V36.5468H48.0546L48.2046 34.8644L48.5459 31.0696L48.7247 29.0615H29.9742V36.5285Z" fill="white"/>
</g>
<defs>
<clipPath id="clip0_774_525">
<rect width="60" height="84.6094" fill="white"/>
</clipPath>
</defs>
</svg>
