<svg width="36" height="35" viewBox="0 0 36 35" fill="none" xmlns="http://www.w3.org/2000/svg">
<path d="M10.45 0H25.1501C30.75 0 35.3 4.55 35.3 10.15V24.85C35.3 27.5419 34.2307 30.1236 32.3272 32.0271C30.4237 33.9306 27.842 35 25.1501 35H10.45C4.85005 35 0.300049 30.45 0.300049 24.85V10.15C0.300049 7.45805 1.36942 4.87636 3.27292 2.97287C5.17641 1.06937 7.7581 0 10.45 0ZM10.1 3.5C8.42918 3.5 6.82676 4.16375 5.64528 5.34523C4.4638 6.52671 3.80005 8.12914 3.80005 9.8V25.2C3.80005 28.6825 6.61755 31.5 10.1 31.5H25.5C27.1709 31.5 28.7733 30.8362 29.9548 29.6548C31.1363 28.4733 31.8 26.8709 31.8 25.2V9.8C31.8 6.3175 28.9825 3.5 25.5 3.5H10.1ZM26.9875 6.125C27.5677 6.125 28.1241 6.35547 28.5343 6.7657C28.9446 7.17594 29.175 7.73234 29.175 8.3125C29.175 8.89266 28.9446 9.44906 28.5343 9.85929C28.1241 10.2695 27.5677 10.5 26.9875 10.5C26.4074 10.5 25.851 10.2695 25.4408 9.85929C25.0305 9.44906 24.8 8.89266 24.8 8.3125C24.8 7.73234 25.0305 7.17594 25.4408 6.7657C25.851 6.35547 26.4074 6.125 26.9875 6.125ZM17.8 8.75C20.1207 8.75 22.3463 9.67187 23.9872 11.3128C25.6282 12.9538 26.55 15.1794 26.55 17.5C26.55 19.8206 25.6282 22.0462 23.9872 23.6872C22.3463 25.3281 20.1207 26.25 17.8 26.25C15.4794 26.25 13.2538 25.3281 11.6129 23.6872C9.97192 22.0462 9.05005 19.8206 9.05005 17.5C9.05005 15.1794 9.97192 12.9538 11.6129 11.3128C13.2538 9.67187 15.4794 8.75 17.8 8.75ZM17.8 12.25C16.4077 12.25 15.0723 12.8031 14.0877 13.7877C13.1032 14.7723 12.55 16.1076 12.55 17.5C12.55 18.8924 13.1032 20.2277 14.0877 21.2123C15.0723 22.1969 16.4077 22.75 17.8 22.75C19.1924 22.75 20.5278 22.1969 21.5124 21.2123C22.4969 20.2277 23.05 18.8924 23.05 17.5C23.05 16.1076 22.4969 14.7723 21.5124 13.7877C20.5278 12.8031 19.1924 12.25 17.8 12.25Z" fill="white"/>
</svg>
