<svg width="60" height="85" viewBox="0 0 60 85" fill="none" xmlns="http://www.w3.org/2000/svg">
<path d="M0 0V84.6094H60V0H0ZM32.6529 65.9862C32.6529 74.2206 29.2243 77.9796 24.2293 77.9796C19.7164 77.9796 17.1043 74.695 15.765 70.7093L20.3593 66.7991C21.2443 69.008 22.0479 70.8785 23.9893 70.8785C25.8364 70.8785 27.015 69.8571 27.015 65.8744V38.8478H32.6529V65.9862ZM45.99 77.9796C40.7529 77.9796 37.365 74.4683 35.7171 69.8571L40.3114 66.1192C41.5179 68.8962 43.0971 70.954 45.87 70.954C48.1993 70.954 49.7014 69.3102 49.7014 67.0257C49.7014 64.3061 48.1736 63.3422 45.5893 61.7376L44.1836 60.8885C40.1121 58.453 37.4207 55.3738 37.4207 48.8952C37.4207 42.9272 40.6479 38.3945 45.6707 38.3945C49.26 38.3945 51.8314 40.1502 53.6807 44.7584L49.2879 48.7259C48.3236 46.2904 47.2779 45.3264 45.6579 45.3264C44.0121 45.3264 42.9664 46.8011 42.9664 48.7259C42.9664 51.1071 44.0121 52.068 46.4357 53.5608L47.8414 54.4099C52.6371 57.2987 55.3286 60.266 55.3286 66.9109C55.3286 74.0513 51.3364 77.9766 45.9921 77.9766L45.99 77.9796Z" fill="black"/>
</svg>
