<svg width="60" height="85" viewBox="0 0 60 85" fill="none" xmlns="http://www.w3.org/2000/svg">
<path d="M41.0125 19.3933C40.725 19.3933 40.53 19.4427 40.3275 19.5097V19.5555H40.3625C40.4975 19.9221 40.7275 20.1901 40.8975 20.5179C41.0325 20.8951 41.1475 21.2723 41.2825 21.646L41.3175 21.5932C41.5525 21.3605 41.6675 20.9868 41.6675 20.4192C41.5675 20.2535 41.5525 20.0878 41.4675 19.9256C41.3675 19.6894 41.1525 19.5731 41.0175 19.3863L41.0125 19.3933ZM14.425 65.9073H12.1075C12.0419 60.7137 11.8167 55.5265 11.4325 50.3603H11.4125L7.8875 65.9073H6.125L2.625 50.3603H2.6C2.3264 55.5346 2.16382 60.7192 2.1125 65.9073H0C0.138333 58.974 0.48 52.4756 1.025 46.4119H3.9L7.2375 60.7391H7.2575L10.625 46.4119H13.3625C13.9675 53.5191 14.3242 60.0176 14.4325 65.9073H14.425ZM24.4675 51.5237C23.5225 58.7367 22.2792 63.9778 20.7375 67.247C19.5325 69.7711 18.2133 71.0321 16.78 71.0297C16.4 71.0297 15.9283 70.8675 15.365 70.5432V68.8017C15.6417 68.8628 15.9633 68.8933 16.33 68.8933C17 68.8933 17.5392 68.6324 17.9475 68.1107C18.4392 67.4761 18.685 66.7652 18.685 65.9778C18.685 65.4302 18.4933 64.3209 18.11 62.6499L15.575 51.5237H17.85L19.6675 59.8436C20.0792 61.7333 20.25 63.0529 20.18 63.8027C21.18 60.0469 21.8758 55.954 22.2675 51.5237H24.4675ZM55.28 65.9073H48.705V46.4119H50.9175V63.51H55.28V65.9073ZM46.98 66.3832L44.44 64.6205C44.6667 64.355 44.8792 64.0612 45.0775 63.7392C46.1592 61.953 46.6992 59.3054 46.6975 55.7965C46.6975 49.345 44.9017 46.1181 41.31 46.1158C39.55 46.1158 38.175 46.9348 37.185 48.573C36.1083 50.3639 35.57 53.002 35.57 56.4875C35.5683 59.9165 36.0467 62.4313 37.005 64.0318C37.8783 65.4772 39.1975 66.1999 40.9625 66.1999C41.6225 66.1999 42.2267 66.0848 42.775 65.8544L46.0875 68.576L46.9875 66.3832H46.98ZM38.75 62.0047C38.1883 60.7332 37.9075 58.6932 37.9075 55.8846C37.9075 50.9726 38.9658 48.5166 41.0825 48.5166C42.1925 48.5166 43.0067 49.1041 43.525 50.2793C44.085 51.5555 44.365 53.5802 44.365 56.3535C44.365 61.3055 43.3067 63.7827 41.19 63.785C40.0783 63.785 39.2633 63.1975 38.745 62.0223L38.75 62.0047ZM34.605 60.5064C34.605 62.1657 34.175 63.5242 33.315 64.5818C32.4583 65.6394 31.305 66.1682 29.855 66.1682C28.4975 66.1682 27.195 65.5618 25.9225 64.3526L26.515 62.6745C27.6083 63.4478 28.6 63.8332 29.49 63.8309C30.32 63.8309 30.9725 63.5723 31.4475 63.0553C31.6855 62.8037 31.8777 62.4759 32.0081 62.0989C32.1385 61.7219 32.2034 61.3065 32.1975 60.8872C32.1975 59.7238 31.6225 58.7367 30.5775 57.9082C29.6075 57.1573 27.67 55.592 27.67 55.592C26.615 54.5097 26.09 53.3499 26.09 51.4426C26.09 49.8586 26.4817 48.5835 27.265 47.6176C28.05 46.6399 29.0667 46.1522 30.315 46.1546C31.5967 46.1546 32.7633 46.6364 33.815 47.6L33.2825 49.278C32.4441 48.7559 31.539 48.48 30.6225 48.4672C29.9142 48.4672 29.3692 48.7093 28.9875 49.1934C28.7953 49.4195 28.6403 49.7018 28.5332 50.0208C28.4262 50.3398 28.3696 50.6878 28.3675 51.0407C28.3675 52.1971 28.9525 53.1912 30.0325 54.0373C31.015 54.7953 33 56.3993 33 56.3993C34.0825 57.4746 34.62 58.6203 34.62 60.517L34.605 60.5064ZM58.06 39.8758C56.7225 39.8265 55.685 40.0168 54.8175 40.5386C54.5675 40.6796 54.1675 40.6796 54.1325 41.1273C54.27 41.3142 54.29 41.6209 54.4075 41.8818C54.6075 42.3542 54.9525 42.9852 55.2725 43.3166C55.6192 43.7091 55.975 44.0734 56.34 44.4095C56.99 44.9735 57.7275 45.3085 58.365 45.876C58.7275 46.2074 59.0975 46.627 59.465 46.9795C59.6475 47.1558 59.765 47.4731 60 47.5859V47.5154C59.885 47.3038 59.85 46.9971 59.7375 46.7609C59.57 46.5247 59.4025 46.3132 59.2375 46.0805C58.7473 45.1676 58.1615 44.3651 57.5 43.7009C56.965 43.1862 55.795 42.467 55.575 41.6033L55.5425 41.5539C55.9075 41.5081 56.3425 41.3212 56.6925 41.1802C57.26 40.9687 57.78 41.0145 58.3675 40.8065C58.6342 40.7078 58.9008 40.5974 59.1675 40.4752V40.2636C58.8675 39.8406 58.6425 39.2659 58.3325 38.8711C57.4664 37.806 56.5437 36.836 55.5725 35.9697C55.0475 35.4973 54.3825 35.1941 53.83 34.7922C53.63 34.6512 53.295 34.5807 53.18 34.3445C52.88 33.8298 52.705 33.1459 52.4925 32.5324C52.0022 31.1892 51.5461 29.8216 51.125 28.4324C50.825 27.5088 50.6425 26.5886 50.275 25.7425C48.55 21.7342 46.6825 19.3052 43.81 16.9291C43.1925 16.4355 42.4525 16.224 41.67 15.9631C41.2525 15.9349 40.835 15.8926 40.42 15.8679C40.145 15.7022 39.88 15.2545 39.645 15.0395C38.695 14.1934 36.235 12.3602 35.535 14.7856C35.085 16.3156 36.2025 17.8245 36.59 18.6001C36.8775 19.1395 37.24 19.7564 37.44 20.3628C37.5575 20.7717 37.59 21.1913 37.7075 21.6178C37.9725 22.6543 38.225 23.8106 38.575 24.7801C38.7575 25.2737 38.9575 25.7919 39.1925 26.2361C39.3275 26.4935 39.5575 26.6133 39.61 27.0364C39.375 27.5158 39.36 28.2138 39.225 28.7991C38.625 31.4678 38.86 34.7675 39.71 36.7312C39.9775 37.3164 40.615 38.6137 41.4675 38.1167C42.2175 37.6936 42.0525 36.354 42.2675 35.173C42.3175 34.8909 42.285 34.7041 42.3875 34.5137V34.5666C42.6225 35.2294 42.8575 35.8604 43.0725 36.5232C43.5875 37.6795 44.4875 38.8781 45.24 39.6784C45.64 40.1015 45.9575 40.8347 46.4575 41.0956V41.0251H46.42C46.3125 40.8206 46.17 40.7219 46.035 40.5562C45.7184 40.1181 45.4259 39.6467 45.16 39.1461C44.4578 37.7868 43.8333 36.351 43.2925 34.8522C43.0175 34.1118 42.7875 33.3151 42.5675 32.5853C42.4675 32.3033 42.4675 31.8802 42.3 31.7392C42.05 32.2539 41.6825 32.7017 41.5 33.3362C41.1825 34.3515 41.15 35.5995 41.03 36.8969C40.9625 36.9216 40.995 36.8969 40.9625 36.9462C40.4275 36.7629 40.245 35.9803 40.045 35.3246C39.545 33.65 39.4625 30.9601 39.895 29.0317C40.0125 28.5382 40.5125 26.98 40.3125 26.5076C40.2075 26.0598 39.8775 25.8025 39.695 25.4394C39.4605 24.9665 39.2596 24.4623 39.095 23.934C38.695 22.6155 38.495 21.156 38.06 19.8375C37.86 19.2276 37.51 18.5895 37.225 18.029C36.9075 17.3944 36.5575 16.9467 36.305 16.1958C36.2225 15.9384 36.105 15.5119 36.2375 15.2298C36.2725 15.0395 36.3425 14.9654 36.4725 14.9125C36.6925 14.6587 37.31 14.9901 37.5275 15.1311C38.145 15.4837 38.665 15.815 39.1825 16.3086C39.4175 16.5413 39.67 16.989 39.97 17.1053H40.32C40.855 17.271 41.4575 17.1547 41.9575 17.3627C42.845 17.7646 43.645 18.3498 44.3625 18.9844C46.5736 20.9755 48.3719 23.7559 49.575 27.0434C49.775 27.5863 49.8625 28.0834 50.045 28.6475C50.395 29.8108 50.8275 30.9848 51.1825 32.1094C51.5325 33.2199 51.87 34.3515 52.3725 35.2717C52.6225 35.7652 53.6275 36.0226 54.0775 36.2799C54.41 36.4915 54.9275 36.6854 55.2275 36.9427C55.8025 37.4363 56.3625 38.0003 56.9025 38.5432C57.1775 38.8112 58.01 39.3999 58.06 39.8758Z" fill="black"/>
</svg>
