<svg width="47" height="47" viewBox="0 0 47 47" fill="none" xmlns="http://www.w3.org/2000/svg">
<path fill-rule="evenodd" clip-rule="evenodd" d="M12.25 46L1 23.5L6.59392 23.4518L15.078 39.5905L23.3419 40.1467L12.25 46Z" fill="#2C2C2C"/>
<path d="M34.75 46L46 23.5L40.3101 24.008L31.826 40.1467H23.3419L12.25 46H34.75Z" fill="#575757"/>
<path d="M12.25 1L1 23.5L6.59392 23.4518L15.078 7.31303H23.5622L34.75 1H12.25Z" fill="#575757"/>
<path fill-rule="evenodd" clip-rule="evenodd" d="M40.3101 24.008L27.9897 28.409L19.0246 19.1166L23.5622 7.31303H32.0463L40.3101 24.008ZM30.5227 11.6419H25.8864L24.6809 18.5591L28.8864 23.4518L34.75 21.5997L30.5227 11.6419Z" fill="#4BE0D8"/>
<path d="M30.5227 11.6419H25.8864L24.6809 18.5591L28.8864 23.4518L34.75 21.5997L30.5227 11.6419Z" fill="#6DF9F2"/>
<path fill-rule="evenodd" clip-rule="evenodd" d="M15.078 39.5905L6.59392 23.4518L19.0246 19.1166L27.9897 28.409L23.3419 40.1467L15.078 39.5905ZM18.5227 24.008L23.5622 28.409L21.9318 34.978H16.5455L11.7727 26.2365L18.5227 24.008Z" fill="#005DBD"/>
<path d="M23.5622 28.409L18.5227 24.008L11.7727 26.2365L16.5455 34.978H21.9318L23.5622 28.409Z" fill="#1D7EE2"/>
<path fill-rule="evenodd" clip-rule="evenodd" d="M6.59392 23.4518L15.078 7.31303H23.5622L19.0246 19.1166L6.59392 23.4518ZM19.8182 10.3497H16.0682L10.9545 19.1166L17.0227 17.1149L19.8182 10.3497Z" fill="#2C2C2C"/>
<path d="M46 23.5L34.75 1L23.5622 7.31303H32.0463L40.3101 24.008L46 23.5Z" fill="#2C2C2C"/>
<path d="M19.8182 10.3497H16.0682L10.9545 19.1166L17.0227 17.1149L19.8182 10.3497Z" fill="#252525"/>
<path fill-rule="evenodd" clip-rule="evenodd" d="M40.3101 24.008L31.826 40.1467H23.3419L27.9897 28.409L40.3101 24.008ZM29.9286 29.6364L36.1818 27.7568L31.3061 37.3068H27.1735L29.9286 29.6364Z" fill="#2C2C2C"/>
<path d="M36.1818 27.7568L29.9286 29.6364L27.1735 37.3068H31.3061L36.1818 27.7568Z" fill="#252525"/>
<path d="M46 23.5L34.75 46H12.25M46 23.5L34.75 1M46 23.5L40.3101 24.008M12.25 46L1 23.5M12.25 46L23.3419 40.1467M1 23.5L12.25 1H34.75M1 23.5L6.59392 23.4518M34.75 1L23.5622 7.31303M40.3101 24.008L31.826 40.1467M40.3101 24.008L27.9897 28.409M40.3101 24.008L32.0463 7.31303M40.3101 24.008L34.75 21.5997M40.3101 24.008L36.1818 27.7568M31.826 40.1467H23.3419M31.826 40.1467L31.3061 37.3068M15.078 39.5905L6.59392 23.4518M15.078 39.5905L23.3419 40.1467M15.078 39.5905L16.5455 34.978M6.59392 23.4518L15.078 7.31303M6.59392 23.4518L19.0246 19.1166M6.59392 23.4518L11.7727 26.2365M6.59392 23.4518L10.9545 19.1166M15.078 7.31303H23.5622M15.078 7.31303L16.0682 10.3497M32.0463 7.31303H23.5622M32.0463 7.31303L30.5227 11.6419M23.5622 7.31303L19.0246 19.1166M23.5622 7.31303L25.8864 11.6419M23.5622 7.31303L19.8182 10.3497M27.9897 28.409L19.0246 19.1166M27.9897 28.409L23.3419 40.1467M27.9897 28.409L28.8864 23.4518M27.9897 28.409H23.5622M27.9897 28.409L29.9286 29.6364M23.3419 40.1467L21.9318 34.978M23.3419 40.1467L27.1735 37.3068M19.0246 19.1166L24.6809 18.5591M19.0246 19.1166L18.5227 24.008M19.0246 19.1166L17.0227 17.1149M25.8864 11.6419H30.5227M25.8864 11.6419L24.6809 18.5591M30.5227 11.6419L34.75 21.5997M34.75 21.5997L28.8864 23.4518M28.8864 23.4518L24.6809 18.5591M18.5227 24.008L23.5622 28.409M18.5227 24.008L11.7727 26.2365M23.5622 28.409L21.9318 34.978M21.9318 34.978H16.5455M16.5455 34.978L11.7727 26.2365M16.0682 10.3497H19.8182M16.0682 10.3497L10.9545 19.1166M19.8182 10.3497L17.0227 17.1149M17.0227 17.1149L10.9545 19.1166M29.9286 29.6364L36.1818 27.7568M29.9286 29.6364L27.1735 37.3068M36.1818 27.7568L31.3061 37.3068M31.3061 37.3068H27.1735" stroke="black"/>
</svg>
