<svg width="30" height="30" viewBox="0 0 30 30" fill="none" xmlns="http://www.w3.org/2000/svg">
<path d="M14.0625 4.6875V1.875C14.0625 1.62636 14.1613 1.3879 14.3371 1.21209C14.5129 1.03627 14.7514 0.9375 15 0.9375C15.2486 0.9375 15.4871 1.03627 15.6629 1.21209C15.8387 1.3879 15.9375 1.62636 15.9375 1.875V4.6875C15.9375 4.93614 15.8387 5.1746 15.6629 5.35041C15.4871 5.52623 15.2486 5.625 15 5.625C14.7514 5.625 14.5129 5.52623 14.3371 5.35041C14.1613 5.1746 14.0625 4.93614 14.0625 4.6875ZM15 7.5C13.5166 7.5 12.0666 7.93987 10.8332 8.76398C9.59985 9.58809 8.63856 10.7594 8.0709 12.1299C7.50325 13.5003 7.35472 15.0083 7.64411 16.4632C7.9335 17.918 8.6478 19.2544 9.6967 20.3033C10.7456 21.3522 12.082 22.0665 13.5368 22.3559C14.9917 22.6453 16.4997 22.4968 17.8701 21.9291C19.2406 21.3614 20.4119 20.4001 21.236 19.1668C22.0601 17.9334 22.5 16.4834 22.5 15C22.4978 13.0115 21.707 11.1052 20.3009 9.6991C18.8949 8.29305 16.9885 7.50217 15 7.5ZM6.83672 8.16328C7.01263 8.33919 7.25122 8.43802 7.5 8.43802C7.74878 8.43802 7.98737 8.33919 8.16328 8.16328C8.33919 7.98737 8.43802 7.74878 8.43802 7.5C8.43802 7.25122 8.33919 7.01263 8.16328 6.83672L6.28828 4.96172C6.11237 4.78581 5.87378 4.68698 5.625 4.68698C5.37622 4.68698 5.13763 4.78581 4.96172 4.96172C4.78581 5.13763 4.68698 5.37622 4.68698 5.625C4.68698 5.87378 4.78581 6.11237 4.96172 6.28828L6.83672 8.16328ZM6.83672 21.8367L4.96172 23.7117C4.78581 23.8876 4.68698 24.1262 4.68698 24.375C4.68698 24.6238 4.78581 24.8624 4.96172 25.0383C5.13763 25.2142 5.37622 25.313 5.625 25.313C5.87378 25.313 6.11237 25.2142 6.28828 25.0383L8.16328 23.1633C8.25038 23.0762 8.31948 22.9728 8.36662 22.859C8.41376 22.7452 8.43802 22.6232 8.43802 22.5C8.43802 22.3768 8.41376 22.2548 8.36662 22.141C8.31948 22.0272 8.25038 21.9238 8.16328 21.8367C8.07618 21.7496 7.97277 21.6805 7.85897 21.6334C7.74516 21.5862 7.62318 21.562 7.5 21.562C7.37682 21.562 7.25484 21.5862 7.14103 21.6334C7.02723 21.6805 6.92382 21.7496 6.83672 21.8367ZM22.5 8.4375C22.6231 8.4376 22.7451 8.41343 22.8589 8.36638C22.9727 8.31933 23.0762 8.25031 23.1633 8.16328L25.0383 6.28828C25.2142 6.11237 25.313 5.87378 25.313 5.625C25.313 5.37622 25.2142 5.13763 25.0383 4.96172C24.8624 4.78581 24.6238 4.68698 24.375 4.68698C24.1262 4.68698 23.8876 4.78581 23.7117 4.96172L21.8367 6.83672C21.7055 6.96783 21.6161 7.13495 21.5798 7.3169C21.5436 7.49885 21.5621 7.68747 21.6332 7.85887C21.7042 8.03026 21.8245 8.17673 21.9788 8.27974C22.1331 8.38274 22.3145 8.43765 22.5 8.4375ZM23.1633 21.8367C22.9874 21.6608 22.7488 21.562 22.5 21.562C22.2512 21.562 22.0126 21.6608 21.8367 21.8367C21.6608 22.0126 21.562 22.2512 21.562 22.5C21.562 22.7488 21.6608 22.9874 21.8367 23.1633L23.7117 25.0383C23.7988 25.1254 23.9022 25.1945 24.016 25.2416C24.1298 25.2888 24.2518 25.313 24.375 25.313C24.4982 25.313 24.6202 25.2888 24.734 25.2416C24.8478 25.1945 24.9512 25.1254 25.0383 25.0383C25.1254 24.9512 25.1945 24.8478 25.2416 24.734C25.2888 24.6202 25.313 24.4982 25.313 24.375C25.313 24.2518 25.2888 24.1298 25.2416 24.016C25.1945 23.9022 25.1254 23.7988 25.0383 23.7117L23.1633 21.8367ZM5.625 15C5.625 14.7514 5.52623 14.5129 5.35041 14.3371C5.1746 14.1613 4.93614 14.0625 4.6875 14.0625H1.875C1.62636 14.0625 1.3879 14.1613 1.21209 14.3371C1.03627 14.5129 0.9375 14.7514 0.9375 15C0.9375 15.2486 1.03627 15.4871 1.21209 15.6629C1.3879 15.8387 1.62636 15.9375 1.875 15.9375H4.6875C4.93614 15.9375 5.1746 15.8387 5.35041 15.6629C5.52623 15.4871 5.625 15.2486 5.625 15ZM15 24.375C14.7514 24.375 14.5129 24.4738 14.3371 24.6496C14.1613 24.8254 14.0625 25.0639 14.0625 25.3125V28.125C14.0625 28.3736 14.1613 28.6121 14.3371 28.7879C14.5129 28.9637 14.7514 29.0625 15 29.0625C15.2486 29.0625 15.4871 28.9637 15.6629 28.7879C15.8387 28.6121 15.9375 28.3736 15.9375 28.125V25.3125C15.9375 25.0639 15.8387 24.8254 15.6629 24.6496C15.4871 24.4738 15.2486 24.375 15 24.375ZM28.125 14.0625H25.3125C25.0639 14.0625 24.8254 14.1613 24.6496 14.3371C24.4738 14.5129 24.375 14.7514 24.375 15C24.375 15.2486 24.4738 15.4871 24.6496 15.6629C24.8254 15.8387 25.0639 15.9375 25.3125 15.9375H28.125C28.3736 15.9375 28.6121 15.8387 28.7879 15.6629C28.9637 15.4871 29.0625 15.2486 29.0625 15C29.0625 14.7514 28.9637 14.5129 28.7879 14.3371C28.6121 14.1613 28.3736 14.0625 28.125 14.0625Z" fill="white"/>
</svg>
